<svg xmlns="http://www.w3.org/2000/svg" width="32" height="32" viewBox="0 0 511.6 511.6"><g fill="currentColor" stroke="currentColor"><path d="M393 292.4h-18.4c-2.7 0-5 .8-6.6 2.5-1.7 1.6-2.6 3.8-2.6 6.5V393c0 12.4-4.4 23.2-13.4 32-9 9-19.7 13.5-32.2 13.5H82.2C69.7 438.5 59 434 50 425c-9-8.8-13.5-19.6-13.5-32V155.2C36.5 142.7 41 132 50 123c9-9 19.7-13.4 32.2-13.4h201c2.7 0 5-.8 6.6-2.5 1.7-1.6 2.6-3.8 2.6-6.5V82.2c0-2.6-1-4.8-2.6-6.5-1.7-1.8-4-2.6-6.6-2.6h-201c-22.6 0-42 8-58 24.2C8 113.2 0 132.7 0 155.2V393c0 22.5 8 42 24 58 16.2 16 35.6 24 58.2 24h237.6c22.6 0 42-8 58-24 16.2-16 24.2-35.5 24.2-58v-91.5c0-2.7-1-5-2.6-6.6-1.7-1.8-4-2.6-6.5-2.6z"/><path d="M506.2 42c-3.6-3.6-8-5.5-13-5.5h-146c-5 0-9.3 2-13 5.5-3.5 3.6-5.3 8-5.3 12.8s1.7 9.3 5.3 13l50.3 50-186.2 186.3c-2 2-2.8 4.2-2.8 6.6 0 2.5 1 4.7 2.8 6.6l32.6 32.5c2 2 4 3 6.5 3s4.7-1 6.6-3l186.3-186 50.2 50c3.6 3.8 8 5.6 13 5.6s9-1.8 12.7-5.5c3.6-3.6 5.4-8 5.4-12.8V54.8c0-5-1.8-9.2-5.4-12.8z"/></g></svg>